<svg xmlns="http://www.w3.org/2000/svg" viewBox="0 0 258 256"><defs><linearGradient id="a" x1="0%" y1="26.185%" y2="70.791%"><stop offset="0%" stop-color="#FE4386"/><stop offset="100%" stop-color="#FFBB94"/></linearGradient><linearGradient id="b" x1="4.547%" y1="25.769%" y2="75.336%"><stop offset="0%" stop-color="#F8016B"/><stop offset="100%" stop-color="#FC716A"/></linearGradient></defs><g fill="none" fill-rule="evenodd"><path fill="url(#a)" d="M220.307 242.327l-86.343 49.376a10 10 0 0 1-9.928 0l-119-68.052A10 10 0 0 1 0 214.97V113.755l50.532-15.449-14.047-45.943 87.55-50.067a10 10 0 0 1 9.93 0l119 68.052A10 10 0 0 1 258 79.03v97.393l-52.898 16.173 15.205 49.732z" opacity=".9" transform="rotate(60 144.303 137.94)"/><path fill="url(#b)" d="M133.956 22.791l100 57.054A10 10 0 0 1 239 88.53v113.902a10 10 0 0 1-5.044 8.686l-100 57.054a10 10 0 0 1-9.912 0l-100-57.054A10 10 0 0 1 19 202.433V88.531a10 10 0 0 1 5.044-8.686l100-57.054a10 10 0 0 1 9.912 0z" transform="rotate(60 144.303 137.94)"/><path fill="#FFF" fill-rule="nonzero" d="M172.727 101.814L134.6 112.029l.564-58.404L84.02 157.121l38.126-10.216-.565 58.405z"/></g></svg>